<svg version="1.0" xmlns="http://www.w3.org/2000/svg" width="666.667" height="666.667" viewBox="0 0 500 500"><path d="M227.5 64.6c-1.6.2-6.6.9-11 1.5-22.7 3-49.6 12.6-70.1 25-18.1 10.9-32 22.5-45.5 37.9-25.3 29-40.4 63.1-44.9 101.2-1.6 13.4-.8 43.9 1.5 56.3 7.1 39 25.7 74.2 53.4 101.3 32.6 31.9 76.3 51.4 121.4 54.2 59.1 3.5 108.6-14.4 149-53.9 10.9-10.6 24-27 31.1-38.8 26.2-43.8 33.1-102.5 17.7-151.8-7.4-23.7-16.9-41.7-32.8-62.2l-6.3-8.2v-15.6c0-8.9-.4-16.5-1-17.6-1-1.8-2.3-1.9-21.6-1.9h-20.5l-7.9-4.5c-16.9-9.6-36.4-16.6-59-21-8.2-1.7-45.8-3-53.5-1.9zM272 74c3 .6 7.1 1.3 9 1.6 11.3 1.8 30.3 7.6 41.3 12.7l5.2 2.5-9-.5c-5.7-.2-11.8-1.3-16.6-2.8-20-6.3-34-8.5-55-8.5-17.1 0-32.8 2.1-49.9 6.7-39.7 10.5-75.4 36-98.3 70-3 4.5-5.7 8-6 7.7-.3-.3-.4.1-.4.8.1.7-1.5 4.4-3.4 8.3-8 15.4-13.4 32.5-16.9 53.1-1.9 11.2-2.1 15.5-1.7 32.4.7 29.3 5 47.3 16.9 72 3.3 6.9 5.9 12.7 5.8 12.9-.1.2.3.7.8 1 .5.3 2.2 2.6 3.7 5.1 20.9 33.5 62.8 63.3 103.5 73.5 16.3 4.2 22.3 4.8 47.7 4.9 13.9.1 24.7-.1 24-.6-.7-.5-.1-.8 1.8-.8 4.3 0 25.7-5.4 34-8.5 17.7-6.7 39.9-19.6 52.6-30.6 5.2-4.5 7.8-6.1 6.5-4.1-.3.5.1.9.9.9 1.1 0 1.2-.4.4-1.3-1.3-1.6-.2-3.7 1.5-3.1.7.3 1.9.1 2.7-.5 1.1-.7.9-.8-.6-.3-1.6.5-1.4 0 .9-2.4 1.6-1.6 3.2-2.9 3.5-2.8.3.1 1.7-.6 3.1-1.6 1.3-.9 1.9-1.7 1.3-1.7-.6 0-1.6.7-2.3 1.5-.7.9-1.5 1.3-1.8 1.1-.3-.3 2-3.2 5-6.5 3.1-3.3 7.8-9.1 10.5-13 2.8-3.9 5.4-6.7 5.8-6.3.5.4.5.1.1-.6-.4-.6.1-2.4 1.2-4 5.3-7.5 13.5-27.7 17.8-44.1 6.8-25.3 7.3-59.4 1.3-84.1-4.9-19.9-13.1-40-21.9-53.5-3.8-5.8-4.6-7.8-4.7-11.9l-.1-4.9 3.3 3.9c7.6 8.8 18.9 30.6 24.5 46.9 6.7 19.7 10.6 45.9 9.5 64.5-.9 15.5-2.4 26.8-4.2 33-.9 3-1.6 6-1.5 6.6.3 1.7-4.5 16.8-7.6 24.1-1.7 4.2-2.9 5.8-3.5 5-.5-.7-.6-.4-.2 1 .6 2 .1 3.1-6.3 14.3-5.1 9-12.5 19-13.5 18.3-.6-.3-.7-.1-.3.6 1.7 2.6-14.8 19.6-32.4 33.5-23 18.1-45.5 28.6-75.5 35.2-12.4 2.8-14.2 2.9-37.5 2.9-22.8 0-25.4-.2-37.5-2.8-31.1-6.5-56.6-18.8-82.5-39.8-12.1-9.8-18.6-16.8-30.2-32.4-7.1-9.5-17.7-29.3-22.1-41-13.1-35.4-14.6-76.2-4.1-115.5 1.6-5.8 3.1-9.7 3.7-9.3.6.4.7.1.3-.6-.5-.7-.2-2.7.4-4.4 2.6-6.8 12.2-25.8 15.2-30.4 10.6-15.8 23.3-30.7 25.2-29.6.6.3.8.3.4-.2-1.1-1.1 1.2-3.6 2.6-2.8.6.3.8.3.4-.2-1.1-1.1 1.2-3.6 2.5-2.8.5.3.7.1.3-.5-1.2-2 18-16.5 33.4-25.2 9.8-5.5 26.4-12.6 36.5-15.6 7.4-2.2 31.6-6.8 41-7.8 6.6-.7 33.6.3 39.5 1.4zm1 15.9c3.3.6.3.9-11.5 1-11 .1-16.5.5-17.3 1.3-.9.9-1.2 12.8-1.2 47.5V186h-2.9c-2.5 0-3-.4-3.6-3.8-.8-4.4-3.6-9.2-6.4-11-1.8-1.1-2.1-2.2-2.1-9.2v-8h3.4c3.2 0 3.4-.2 3.9-3.8.2-2 .5-16.5.5-32.2 0-15.7.1-28.9.1-29.4.1-1 30.2 0 37.1 1.3zm-46 28.8c0 27.7-.1 28.6-1.8 27-1.2-1.1-3.6-1.7-7-1.7H213V91.2l6.3-.9c3.4-.5 6.5-.8 7-.6.4.3.7 13.3.7 29zm-22-6.2V132h-8V95.3l3.3-1.1c1.7-.5 3.5-1 4-1.1.4-.1.7 8.7.7 19.4zm-16.7 2.7.1 16.3-7.7.3-7.8.3.3-14.2.3-14.2 7-2.8c3.8-1.5 7.1-2.6 7.4-2.4.2.3.4 7.8.4 16.7zm194.5-11.4.3 4.2-65.8-.2-65.8-.3-.3-2.8c-.7-6.1-5.2-5.7 66-5.5l65.3.3.3 4.3zm-218 17.3-.3 10.4-5.2.3-5.3.3v-8.4c0-6.7.3-8.7 1.8-10 2.8-2.5 7.6-4.7 8.5-3.8.4.4.6 5.5.5 11.2zM383 219.5V324l-65.7-.2-65.8-.3-.3-103c-.1-56.7 0-103.6.3-104.3.3-.9 14.5-1.2 66-1.2H383v104.5zM146 132v12h-4.9c-7.4 0-8.1 1.1-8.1 13.6V168h-5v-32.6l4.3-4.1c3.5-3.5 12.6-11.1 13.5-11.2.1-.1.2 5.3.2 11.9zm59 10c0 .6-9 1-24.9 1-15.6 0-25.2-.4-25.6-1-.4-.7 8.2-1 24.9-1 16.4 0 25.6.4 25.6 1zm-85 14.4v13.5l-2.9 1.7c-1.6 1-3.5 2.8-4.1 4-1.1 1.9-2.2 2.3-8.4 2.6-3.9.2-7.3.2-7.5.1-1.4-.9 9.9-19.8 17.6-29.3 2.6-3.2 4.9-5.9 5.1-5.9.1-.1.2 5.9.2 13.3zm73 3.5c0 5.5-.4 8-1.2 8.2-.7.2-12.4.3-26 .1l-24.8-.3V152h52v7.9zm27-.5c0 5.2-.4 7.7-1.4 8.5-1.5 1.3-15.4 1-17.5-.3-.6-.4-1.1-3.8-1.1-8.2V152h20v7.4zm175 16.3c0 .7-.7 1.3-1.5 1.3-1 0-1.5-1-1.5-3.2 0-3 .1-3.1 1.5-1.2.8 1 1.5 2.5 1.5 3.1zm-233 7.2v5.8l-5.7 3.6c-6.1 3.7-12.6 9.6-16.9 15.3l-2.6 3.4H118v-28.2l2.9-2.9 2.9-2.9H162v5.9zm30-2.6c0 2.8-.6 3.5-4.4 5.5l-4.4 2.4-6.1-2.2c-5.8-2.2-6.1-2.4-6.1-5.6V177h21v3.3zm33.4-1.1c2.5 2.3 3.1 4.9 2.7 13.1-.1 3.4-.4 3.8-2.3 3.5-1.4-.2-2.2-.9-2-1.8.2-.8 0-1.2-.4-.8-.4.4-2.2-.6-4.1-2.2-3.7-3.3-14.4-9-16.8-9-.9 0-1.5-.9-1.5-2.5V177h10.9c10 0 11.2.2 13.5 2.2zm177.4 14.5c4 10.4 6.8 20 8.6 30.2 2.5 13.1 3.3 12.1-8.9 12.1H392v-8.8c0-8.6 0-8.7 3-10.4l3-1.7v-14.6c0-8.2.4-14.5.9-14.5s2.3 3.5 3.9 7.7zM101.5 230c6.8.4 8 .8 7.9 2.2 0 1-.1 6.5-.2 12.3L109 255H78.9l.3-5.3.3-5.2 7.3-.3 7.2-.3V236h-7c-8.1 0-7.8.7-5.4-12.1 1.9-10.5 4.9-21.3 8.3-30.4l2.6-7L93 208l.5 21.5 8 .5zm7.3-25.8-.3 17.3h-7l-.3-17.3-.2-17.2h8l-.2 17.2zm98.9-11.5c2.8 1.3 7.4 4.4 10.1 6.8 3.7 3.3 5.8 4.5 8.1 4.5 3 0 3.1.2 3.1 4v4h-4.8c-4.2 0-5-.3-6.3-2.6-3-5.8-18.5-16.3-23.9-16.4-1 0-.7-.7 1-2 2.9-2.2 5-1.9 12.7 1.7zm-35.7.3c0 .5-.7 1-1.5 1s-1.5-.5-1.5-1c0-.6.7-1 1.5-1s1.5.4 1.5 1zm70.8 6.7c-.3 4.6-.4 4.8-3.2 4.8-2.6 0-3-.4-3.4-3.4-.5-4.8.3-6.1 3.8-6.1 3.1 0 3.1 0 2.8 4.7zm-59.1-.4c-.3.8-.8 4.3-1.2 7.9-.4 3.6-1 6.9-1.4 7.5-.3.5-2.4 1.4-4.6 2.1-4.8 1.4-8.8 4.9-11.5 10.2-2.3 4.4-2.3 4.4-14.7 1.3-7.5-1.8-7.8-2.9-3.3-11.9 2.9-5.9 7.9-11.8 13.1-15.5 2.7-1.9 2.8-1.9 3.8 0 1.7 3.2 3.9 3.2 10.9.2 7.5-3.3 9.7-3.7 8.9-1.8zm16.5 4.4c5.6 3 11.3 8.7 10.5 10.5-.2.7-3.4 2.6-6.9 4.1l-6.5 2.8-4.1-2.7-4.2-2.8v-15.8l3.3.7c1.7.4 5.3 1.8 7.9 3.2zm42.8 26.8V248h-7v-35h7v17.5zm-108 10.9c0 16.2-.3 21.5-1.2 21.8-.7.2-4.8.2-9 0l-7.8-.4V220h18v21.4zm90.7-18.7c.5 1.6.8 7.7.8 13.8 0 9.8-.3 11.6-2.6 16.5-5 10.4-13.1 17.6-25.1 22.2-5.6 2.1-6.3 1.8-7.2-2.8-.6-2.9-.5-3.1 4.7-5.2 10-4.2 19.7-16.4 19.7-24.9 0-2.9-.3-3.3-3.7-3.8-10.6-1.7-10-1.3-10.5-7.8l-.3-3.8 8-3.4c4.4-1.9 9.7-3.4 11.7-3.5 3.3 0 3.9.4 4.5 2.7zm-38.2 2.7c6.6 2.8 8.5 11.3 3.8 16.6-3.9 4.3-8.1 5.2-13 3-4.7-2.1-6.8-6.3-6-11.6.7-4.3 2.2-6.3 6.2-8 3.9-1.7 4.9-1.7 9 0zm-33.6 11.5c9.4 1.7 9.5 1.7 10.3 4.9 1.3 4.8 7.9 11 13.3 12.4 4.4 1.2 4.5 1.4 3.9 4.3-.3 1.6-2 6.5-3.6 10.8-3.4 8.8-2.9 8.6-12.8 3.9-6.6-3.1-14.8-11-17.8-17.2-3.2-6.7-5.6-21.1-3.4-20.9.4 0 5 .8 10.1 1.8zm53 8.7c.7.7-1.5 4.8-4.5 8.3-2.8 3.4-12 8.4-13.6 7.5-.4-.3-.8-1.8-.8-3.4 0-2.3.8-3.3 4.5-5.4 2.4-1.5 5.2-4 6.2-5.6 1.5-2.7 2.2-3 4.8-2.4 1.6.3 3.2.8 3.4 1zm206.9 4.1.3 5.3H392v-4.8c0-2.7.3-5.2.7-5.6.4-.4 5.2-.5 10.7-.4l10.1.3.3 5.2zM243 265.5v9.5h-15v-5.1c0-4.3.5-5.7 3.6-9.5 3.2-3.8 4.1-4.4 7.5-4.4h3.9v9.5zM93 269v6H80.2l-.4-5.6c-.1-3.1-.1-5.8.1-6 .2-.2 3.3-.4 6.8-.4H93v6zm16.2-2.3.3 3.8 12.5.5c10.2.4 12.5.8 12.5 2 0 1.3-2.6 1.5-16.7 1.8l-16.8.2v-12h3.9c3.9 0 4 .1 4.3 3.7zm304.1-3c.2.5.2 3.2-.1 6l-.4 5.3H392v-12h10.4c5.8 0 10.7.3 10.9.7zM163.1 282c8 4 8.8 4.2 16.9 4.1 4.7-.1 10.5-.4 13-.7 5.2-.8 15.4-5.1 20.2-8.7 6-4.4 5.8-4.7 5.8 6.2V293h-76v-26.8l5.9 5.8c3.7 3.6 8.9 7.2 14.2 10zm-70.3 6.7.3 5.3h-4.5c-4.4 0-4.5-.1-5.5-3.8-2-6.9-1.7-7.3 4.2-7l5.2.3.3 5.2zm26.2-.2v5.5h-18v-4.8c0-2.7.3-5.2.7-5.5.3-.4 4.4-.7 9-.7h8.3v5.5zm15.4-3.8c.4 1.5.3 3.7-.3 8.6-.1.5-1.6.7-3.3.5-3-.3-3.3-.6-3.6-4.2-.2-2.1-.1-4.4.2-5.2.8-2.1 6.4-1.8 7 .3zm108.6 3.8v5.5h-15v-11h15v5.5zm168-3.8c0 1-.5 3.5-1.1 5.5l-1 3.8H392v-11h9.5c8.4 0 9.5.2 9.5 1.7zm-168.2 24-.3 6.8-75.8.3-75.8.2-1.9-4.2c-1-2.4-2.2-5.5-2.5-7.1l-.7-2.7h157.3l-.3 6.7zm164.2-6.4c0 1.2-3.5 10.4-4.3 11.5-.6.8-2.7 1.2-5.6 1l-4.6-.3-.3-6.3-.3-6.2h7.6c4.1 0 7.5.1 7.5.3zm-8 21.7c0 1.5-4.3 9.7-8.2 15.5l-3.3 5-72.3.3-72.2.2v-13h71.8c79.2 0 76.2.2 76.2-6.1 0-2.7.2-2.9 4-2.9 2.2 0 4 .5 4 1zm-265 1c0 .6-6.2 1-16.5 1s-16.5-.4-16.5-1 6.2-1 16.5-1 16.5.4 16.5 1zm78 9.5V345h-69v-21h69v10.5zm22-.1V345h-12V324.3l6-.2 6-.2v10.5zm-100 5.1v5.6l-14.2-.3-14.3-.3-2.8-5.3-2.8-5.2H134v5.5zm-.2 17.2-.3 3.8-8.2.3c-7.9.3-8.2.2-10-2.5-3.9-5.5-4.2-5.3 7.7-5.3h11.1l-.3 3.7zm54.7.3v3.5h-46l-.3-3.8-.3-3.7 23.3.2 23.3.3v3.5zm24 0v3.5l-7.7.3-7.8.3v-8.2l7.8.3 7.7.3v3.5zm168.5-3.4c0 .3-1.2 2.1-2.6 4l-2.6 3.4H221v-8h80c44 0 80 .3 80 .6zm-18.1 18.7c-1.9 1.8-5.5 4.8-7.9 6.7-2.5 1.9-7.2 6.2-10.5 9.5-6.8 7-16.5 12.7-25.1 15-3.1.8-7.5 2.4-9.6 3.5-2.2 1.1-4.4 1.8-4.9 1.5-.5-.4-.9-.2-.9.2 0 .8-11.2 4.9-15.8 5.8-.9.1-3.6.8-6 1.4-8.1 2.2-38.4 3.2-54.5 1.8-9.7-.8-25.1-3.4-29.5-5-3-1-3.2-1.3-1.6-2.4 1-.7 1.3-1.3.8-1.3-.6 0-1.5.5-2.1 1.1-1.3 1.3-6.1 0-12.5-3.3-4.2-2-5.2-4.3-1.5-3.3 1.9.5 2 .5.4-.5-1.4-.9-2.2-.9-3.3 0-1.1 1-2.1 1-4.4 0-1.6-.7-2.7-1.7-2.3-2.3.3-.6.1-.7-.5-.3-1.6 1-7.4-2.5-6.8-4.1.3-.7-.1-1-.9-.7-1.7.7-6.4-1.8-9.4-5-1.4-1.4-3-2.6-3.6-2.6-1.2 0-12.4-8.3-20.3-15.1l-4.2-3.6 120.2-.1 120.3-.1-3.6 3.2z"/><path d="M95.6 152.2c.3.5 1 .6 1.5.3 1.3-.9 1.1-1.2-.6-1.2-.8 0-1.2.4-.9.9zM89 162c0 .5-.9 1.9-2 3s-2 2.9-2 3.9c0 1.1-.6 2.1-1.2 2.4-.7.2-1 .8-.5 1.2 1 1.2 3.6-2.6 2.9-4.4-.3-.9-.1-1.2.6-.7.8.5 1 .1.5-1-.4-1.1-.2-1.5.4-1.1.5.4 1.5-.5 2.1-1.8.7-1.5.8-2.5.2-2.5-.6 0-1 .4-1 1zM81 183.1c0 .5.5.7 1 .4.6-.3 1-.8 1-1.1 0-.2-.4-.4-1-.4-.5 0-1 .5-1 1.1zM76.5 188.1c-.4.6-.5 1.2-.2 1.5.2.3.7-.2 1-1.1.7-1.7.1-2-.8-.4zM68.5 216.1c-.4 1.7-.4 3.3-.1 3.6.3.4.6-.4.6-1.6 0-1.2.4-2 .9-1.7.5.4.7-.3.4-1.4-.7-2.7-1-2.5-1.8 1.1zM419.6 295.7c-.6 1.4-.5 1.5.5.6.7-.7 1-1.5.7-1.8-.3-.3-.9.2-1.2 1.2zM410.5 324.1c-.4.6-.5 1.2-.2 1.5.2.3.7-.2 1-1.1.7-1.7.1-2-.8-.4zM394.5 353.1c-.4.6-.5 1.2-.2 1.5.2.3.7-.2 1-1.1.7-1.7.1-2-.8-.4zM374.6 375.8c-.2.4-.1 1.4.4 2.2.7 1.1.9.9.7-.8-.1-2.4-.3-2.6-1.1-1.4zM261.7 124.7c-1.3 1.2-.8 43.8.5 45.1 1.7 1.7 107.9 1.7 109.6 0 1.7-1.7 1.7-42.9 0-44.6-.9-.9-14.6-1.2-55.3-1.2-29.8 0-54.5.3-54.8.7zM365 147.5V163h-96v-31h96v15.5zM262.8 181.1c-1.5.9-1.8 2.6-1.8 11.9 0 9.8.2 11 1.9 12 1.1.5 7.2 1 13.6 1 6.4 0 12.5-.5 13.6-1 1.7-1 1.9-2.2 1.9-11.5 0-13.8.3-13.5-15.3-13.5-6.7 0-13 .5-13.9 1.1zM284 193v5.1l-7.7-.3-7.8-.3-.3-3.3c-.6-5.8 0-6.2 8.3-6.2h7.5v5zM303.4 180.8c-.7.4-1.3 7.2-1.7 18.5-.4 14.9-.3 18 1 19.2 1.9 1.9 28.2 2.2 30.1.3.8-.8 1.2-6.4 1.2-18.4 0-14.4-.3-17.5-1.6-18.8-1.2-1.3-4.1-1.6-14.7-1.6-7.3 0-13.7.4-14.3.8zM326 200v11h-16.9l.2-11 .2-11H326v11zM345.1 181.4c-.8.9-1.1 7-.9 19.7l.3 18.4h28l.3-18.5c.2-16.5.1-18.6-1.5-19.7-2.5-1.9-24.7-1.8-26.2.1zM365 200v12.1l-6.7-.3-6.7-.3-.4-10.4c-.2-5.7-.1-11 .2-11.7.4-1 2.5-1.4 7.1-1.4h6.5v12zM262.3 215.7c-1.8.7-1.8 32.4-.1 34.1 1.5 1.5 25.1 1.7 27.9.2 1.8-1 1.9-2.3 1.9-17s-.1-16-1.9-17c-2-1-25.4-1.3-27.8-.3zM284 233v10.1l-7.7-.3-7.8-.3-.3-8.4c-.2-4.6-.1-9 .2-9.8.4-.9 2.7-1.3 8.1-1.3h7.5v10zM311.5 227.9l-9 .6-.3 10.4c-.2 7.7.1 10.7 1 11.3 1.8 1.1 25.1 1 28.2-.2 2.5-.9 2.6-1.2 2.6-10.2 0-5.1-.4-9.9-.8-10.5-1-1.6-10.2-2.2-21.7-1.4zM326 239v4.1l-8.2-.3c-7.8-.3-8.3-.4-8.6-2.6-.7-4.7.2-5.2 8.8-5.2h8v4zM345.8 229.1c-1.7.9-1.8 4-1.8 42.2 0 30.8.3 41.6 1.2 42.5.8.8 5.2 1.2 13.3 1.2 8.1 0 12.5-.4 13.3-1.2.9-.9 1.2-11.7 1.2-42.5 0-39.7-.1-41.3-1.9-42.3-2.5-1.3-23-1.3-25.3.1zm19.2 18.4V259h-13v-23h13v11.5zm-.3 39 .1 19.5H353l-.1-17.8c0-9.7-.2-18.5-.4-19.5-.3-1.5.5-1.7 5.9-1.7h6.2l.1 19.5zM262.7 259.3c-1.5 1-1.7 2.7-1.5 11.2l.3 10 13.9.3c9.3.2 14.3-.1 15.2-.9 1-.8 1.4-3.7 1.4-10.5 0-9.2-.1-9.5-2.6-10.4-3.8-1.5-24.7-1.3-26.7.3zm21.3 10.2v3.6l-7.7-.3c-6.6-.3-7.8-.6-8.1-2.1-.8-4 .4-4.7 8.3-4.7h7.5v3.5zM303.2 258.8c-.9.6-1.2 3.6-1 11.3l.3 10.4 14.4.3c9.7.2 14.8-.1 15.7-.9 1.6-1.3 2-17.4.4-19.9-.7-1.2-3.8-1.6-14.7-1.8-7.6-.1-14.4.1-15.1.6zm22.8 10.7v3.6l-8.2-.3c-7.1-.3-8.3-.6-8.6-2.1-.8-4.1.4-4.7 8.8-4.7h8v3.5zM261.7 290.7c-.4.3-.7 5.5-.7 11.4 0 9.7.2 10.9 1.9 11.9 1.1.5 7.2 1 13.6 1 6.4 0 12.5-.5 13.6-1 1.7-1 1.9-2.2 1.9-11.3 0-6.7-.4-10.7-1.2-11.5-1.3-1.3-27.9-1.8-29.1-.5zm21.7 8.9c.3.9.6 2.7.6 4 0 2.3-.2 2.4-7.5 2.4H269v-8h6.9c5.4 0 7 .4 7.5 1.6zM302.7 290.7c-.4.3-.7 5.7-.7 11.9 0 9.3.3 11.3 1.6 11.8 2.7 1 26.4.7 28.5-.4 1.7-1 1.9-2.2 1.9-11.3 0-6.7-.4-10.7-1.2-11.5-1.3-1.3-28.9-1.8-30.1-.5zm23.3 11.9v4.4h-17v-8.9l7.8-.3c4.2-.2 8-.2 8.5 0 .4.2.7 2.3.7 4.8zM122.4 186.5c-.7 2.6.9 5.5 3.1 5.5s4.7-3.7 4-5.9c-1-3.2-6.3-2.9-7.1.4zM123.6 199.3c-1.1.8-1.7 2.3-1.4 3.8.2 1.9.9 2.4 3.2 2.4 4 0 5.6-2.7 3.2-5.4-2.2-2.5-2.6-2.5-5-.8zM136.4 205.1c-.3.6-.1 1.6.6 2.2 1 .9 1.1.9.5-.2-.4-.8-.2-1.7.6-2.2.9-.6 1-.9.2-.9-.6 0-1.5.5-1.9 1.1zM223 189.9c0 .5.5 1.3 1 1.6.6.3 1 .2 1-.4 0-.5-.4-1.3-1-1.6-.5-.3-1-.2-1 .4zM179 232c-2.4 2.4-2.5 3.8-.4 6.8 1.9 2.8 5.7 2.9 8.4.2 2.5-2.5 2.6-5.2.2-7.3-2.5-2.3-5.8-2.1-8.2.3zM147.3 280.7c-.7.2-1.3 1.8-1.3 3.4 0 2.2.6 3 2.5 3.5 2.9.7 5.5-1 5.5-3.5 0-3.3-3.2-4.9-6.7-3.4zM146.5 332.3c-1.8 2.6-.3 5.7 2.8 5.7 3.4 0 4.8-1.4 4.5-4.6-.2-2.4-.6-2.9-3-3-1.8-.1-3.4.6-4.3 1.9zM158.4 331.7c-2.3 2.4-1.5 5.4 1.8 6.6 2.2.8 4.5-1.2 5-4.5.4-2.3.1-2.7-2.4-3-1.8-.3-3.6.1-4.4.9zM170.6 331.6c-3.1 3-1.3 6.7 3 6.2 3.5-.4 4.7-4.4 1.8-6.5-2.3-1.7-2.9-1.6-4.8.3zM182.1 331.4c-.7.8-1.1 2.5-.9 3.8.2 1.8 1 2.4 3.5 2.6 2.8.3 3.3-.1 3.9-2.3.7-2.9 0-3.9-3.2-4.9-1.3-.4-2.6-.1-3.3.8zM202.5 331.3c-3.5 2.6-.1 8.6 4 7.1 2.1-.8 3-5.1 1.5-6.9-1.5-1.9-3.1-1.9-5.5-.2zM203.8 340.7c.7.3 1.6.2 1.9-.1.4-.3-.2-.6-1.3-.5-1.1 0-1.4.3-.6.6zM203 412.4c0 .2.7.7 1.6 1 .8.3 1.2.2.9-.4-.6-1-2.5-1.4-2.5-.6z"/></svg>